<svg width="41" height="41" viewBox="0 0 41 41" fill="none" xmlns="http://www.w3.org/2000/svg">
<path d="M18.9461 39.7172L21.3036 36.655C14.5642 38.0388 7.38921 35.1303 3.64796 28.8906C-0.0932867 22.6509 0.726714 14.9634 5.1214 9.67188" stroke="#FF6100" stroke-width="2" stroke-linecap="round" stroke-linejoin="round"/>
<path d="M17.9761 34.3516L21.3201 36.6578" stroke="#FF6100" stroke-width="2" stroke-linecap="round" stroke-linejoin="round"/>
<path d="M21.1304 1.28125L18.7729 4.34344C25.5123 2.95969 32.6873 5.86812 36.4286 12.1078C40.1698 18.3475 39.3626 26.0478 34.968 31.3394" stroke="#FF6100" stroke-width="2" stroke-linecap="round" stroke-linejoin="round"/>
<path d="M22.1042 6.65L18.7729 4.34375" stroke="#FF6100" stroke-width="2" stroke-linecap="round" stroke-linejoin="round"/>
<path d="M28.608 27.3272C29.902 27.3272 30.9527 26.2766 30.9527 24.9825V19.4347V16.8209V16.7825V16.0009C30.9527 14.7069 29.902 13.6562 28.608 13.6562H11.5673C10.2733 13.6562 9.22266 14.7069 9.22266 16.0009V24.9697C9.22266 26.2637 10.2733 27.3144 11.5673 27.3144H28.608V27.3272Z" stroke="#FF6100" stroke-width="2" stroke-linecap="round" stroke-linejoin="round"/>
<path d="M30.9655 18.4738L10.5039 18.4609" stroke="#FF6100" stroke-width="2" stroke-linecap="round" stroke-linejoin="round"/>
<path d="M12.2891 22.6133H16.2481" stroke="#FF6100" stroke-width="2" stroke-linecap="round" stroke-linejoin="round"/>
</svg>
