<svg width="28" height="37" viewBox="0 0 28 37" fill="none" xmlns="http://www.w3.org/2000/svg">
<path d="M23.2725 0.625C23.7745 0.62515 24.1816 1.03214 24.1816 1.53418V5.26172C24.1814 5.76359 23.7743 6.17075 23.2725 6.1709C22.7704 6.1709 22.3635 5.76369 22.3633 5.26172V2.44336H1.81836V35.1816H22.3633V20.1699C22.3633 19.6678 22.7704 19.2607 23.2725 19.2607C23.7744 19.2609 24.1816 19.6679 24.1816 20.1699V36.0908C24.1816 36.5928 23.7745 36.9999 23.2725 37H0.90918C0.407061 37 1.38728e-05 36.5929 0 36.0908V1.53418C4.73506e-06 1.03205 0.407055 0.62501 0.90918 0.625H23.2725ZM17.3066 27.46C17.8086 27.4602 18.2158 27.8672 18.2158 28.3691C18.2158 28.8711 17.8086 29.2781 17.3066 29.2783H6.87012C6.36799 29.2783 5.96095 28.8713 5.96094 28.3691C5.96094 27.867 6.36799 27.46 6.87012 27.46H17.3066ZM17.3066 22.9922C17.8085 22.9924 18.2157 23.3995 18.2158 23.9014C18.2158 24.4034 17.8086 24.8103 17.3066 24.8105H6.87012C6.36799 24.8105 5.96094 24.4035 5.96094 23.9014C5.96109 23.3994 6.36808 22.9922 6.87012 22.9922H17.3066ZM17.3066 18.5166C17.8086 18.5168 18.2158 18.9238 18.2158 19.4258C18.2157 19.9277 17.8085 20.3347 17.3066 20.335H6.87012C6.36805 20.335 5.96105 19.9278 5.96094 19.4258C5.96094 18.9236 6.36799 18.5166 6.87012 18.5166H17.3066ZM22.5254 7.5C25.4071 7.5 27.744 9.83607 27.7441 12.7178C27.7441 15.5996 25.4072 17.9365 22.5254 17.9365C19.6437 17.9363 17.3076 15.5995 17.3076 12.7178C17.3078 9.83619 19.6438 7.5002 22.5254 7.5ZM22.5254 9.31836C20.6481 9.31856 19.1261 10.8405 19.126 12.7178C19.126 14.5952 20.648 16.118 22.5254 16.1182C24.403 16.1182 25.9258 14.5953 25.9258 12.7178C25.9256 10.8403 24.4029 9.31836 22.5254 9.31836ZM12.834 11.0615C13.3359 11.0617 13.7432 11.4697 13.7432 11.9717C13.7429 12.4735 13.3358 12.8806 12.834 12.8809H6.87012C6.36815 12.8809 5.9612 12.4736 5.96094 11.9717C5.96094 11.4695 6.36799 11.0615 6.87012 11.0615H12.834ZM14.3242 6.58984C14.8262 6.58984 15.2332 6.99707 15.2334 7.49902C15.2334 8.00116 14.8264 8.4082 14.3242 8.4082H6.87012C6.36799 8.4082 5.96094 8.00116 5.96094 7.49902C5.96115 6.99707 6.36812 6.58985 6.87012 6.58984H14.3242Z" fill="#FF6100"/>
</svg>
